<svg width="16" height="16" viewBox="0 0 16 16" fill="none" xmlns="http://www.w3.org/2000/svg">
<g clip-path="url(#clip0_54_9070)">
<path d="M6 7.3335C6 7.86393 6.21071 8.37264 6.58579 8.74771C6.96086 9.12278 7.46957 9.3335 8 9.3335C8.53043 9.3335 9.03914 9.12278 9.41421 8.74771C9.78929 8.37264 10 7.86393 10 7.3335C10 6.80306 9.78929 6.29436 9.41421 5.91928C9.03914 5.54421 8.53043 5.3335 8 5.3335C7.46957 5.3335 6.96086 5.54421 6.58579 5.91928C6.21071 6.29436 6 6.80306 6 7.3335Z" stroke="black" stroke-width="0.833333" stroke-linecap="round" stroke-linejoin="round"/>
<path d="M11.7707 11.1045L8.94202 13.9331C8.69201 14.1829 8.35307 14.3232 7.99968 14.3232C7.6463 14.3232 7.30736 14.1829 7.05735 13.9331L4.22802 11.1045C3.48217 10.3586 2.97424 9.40827 2.76848 8.37371C2.56271 7.33916 2.66834 6.26681 3.07202 5.29229C3.4757 4.31777 4.15928 3.48483 5.03634 2.89881C5.9134 2.31279 6.94453 2 7.99935 2C9.05417 2 10.0853 2.31279 10.9624 2.89881C11.8394 3.48483 12.523 4.31777 12.9267 5.29229C13.3304 6.26681 13.436 7.33916 13.2302 8.37371C13.0245 9.40827 12.5165 10.3586 11.7707 11.1045Z" stroke="black" stroke-width="0.833333" stroke-linecap="round" stroke-linejoin="round"/>
</g>
<defs>
<clipPath id="clip0_54_9070">
<rect width="16" height="16" fill="white"/>
</clipPath>
</defs>
</svg>
