<svg width="24" height="24" viewBox="0 0 24 24" fill="none" xmlns="http://www.w3.org/2000/svg">
<g clip-path="url(#clip0_13_4298)">
<path d="M9 5C9 4.20435 9.31607 3.44129 9.87868 2.87868C10.4413 2.31607 11.2044 2 12 2C12.7956 2 13.5587 2.31607 14.1213 2.87868C14.6839 3.44129 15 4.20435 15 5V10C15 10.7957 14.6839 11.5587 14.1213 12.1213C13.5587 12.6839 12.7956 13 12 13C11.2044 13 10.4413 12.6839 9.87868 12.1213C9.31607 11.5587 9 10.7957 9 10V5Z" stroke="#2B2D42" stroke-linecap="round" stroke-linejoin="round"/>
<path d="M5 10C5 11.8565 5.7375 13.637 7.05025 14.9497C8.36301 16.2625 10.1435 17 12 17C13.8565 17 15.637 16.2625 16.9497 14.9497C18.2625 13.637 19 11.8565 19 10" stroke="#2B2D42" stroke-linecap="round" stroke-linejoin="round"/>
<path d="M8 21H16" stroke="#2B2D42" stroke-linecap="round" stroke-linejoin="round"/>
<path d="M12 17V21" stroke="#2B2D42" stroke-linecap="round" stroke-linejoin="round"/>
</g>
<defs>
<clipPath id="clip0_13_4298">
<rect width="24" height="24" fill="white"/>
</clipPath>
</defs>
</svg>
