<svg width="20" height="20" viewBox="0 0 20 20" fill="none" xmlns="http://www.w3.org/2000/svg">
<g clip-path="url(#clip0_13_4686)">
<path fill-rule="evenodd" clip-rule="evenodd" d="M18.1118 10.4849L18.1106 10.4924C18.1014 10.5059 18.09 10.5177 18.0768 10.5274C17.9812 10.5971 17.8651 10.6332 17.7468 10.6299H13.7643C9.86683 10.6299 7.91432 15.3424 10.6693 18.0974C9.01875 18.2338 7.36591 17.8626 5.93223 17.0334C4.49855 16.2042 3.3525 14.9567 2.64763 13.458C1.94276 11.9593 1.71273 10.2809 1.98837 8.64783C2.264 7.01473 3.03212 5.50486 4.18983 4.32051C5.34754 3.13615 6.83955 2.33388 8.46596 2.02117C10.0924 1.70846 11.7755 1.90025 13.2899 2.57084C14.8042 3.24143 16.0775 4.3588 16.9391 5.77325C17.8007 7.1877 18.2094 8.83167 18.1106 10.4849H18.1118ZM17.7468 12.5049C18.8881 12.5049 19.9168 11.7324 19.9843 10.5937C20.1063 8.54322 19.5938 6.50496 18.5167 4.75598C17.4395 3.007 15.8499 1.63216 13.9639 0.818344C12.0779 0.00453129 9.98711 -0.208764 7.97565 0.207455C5.96419 0.623673 4.1297 1.64921 2.72157 3.14466C1.31343 4.6401 0.399966 6.53289 0.105355 8.56573C-0.189256 10.5986 0.149279 12.6728 1.07494 14.5065C2.0006 16.3401 3.46847 17.8443 5.27901 18.8144C7.08955 19.7845 9.15491 20.1736 11.1943 19.9287C12.7481 19.7449 13.1031 17.8799 11.9956 16.7724C10.4206 15.1974 11.5368 12.5049 13.7643 12.5049H17.7468ZM12.5006 6.24991C12.5006 6.58144 12.3689 6.89938 12.1345 7.1338C11.9 7.36822 11.5821 7.49991 11.2506 7.49991C10.9191 7.49991 10.6011 7.36822 10.3667 7.1338C10.1323 6.89938 10.0006 6.58144 10.0006 6.24991C10.0006 5.91839 10.1323 5.60045 10.3667 5.36603C10.6011 5.13161 10.9191 4.99991 11.2506 4.99991C11.5821 4.99991 11.9 5.13161 12.1345 5.36603C12.3689 5.60045 12.5006 5.91839 12.5006 6.24991ZM7.50058 8.74992C7.8321 8.74992 8.15004 8.61822 8.38446 8.3838C8.61888 8.14938 8.75058 7.83144 8.75058 7.49991C8.75058 7.16839 8.61888 6.85045 8.38446 6.61603C8.15004 6.38161 7.8321 6.24991 7.50058 6.24991C7.16905 6.24991 6.85111 6.38161 6.61669 6.61603C6.38227 6.85045 6.25058 7.16839 6.25058 7.49991C6.25058 7.83144 6.38227 8.14938 6.61669 8.3838C6.85111 8.61822 7.16905 8.74992 7.50058 8.74992ZM7.50058 11.2499C7.50058 11.5814 7.36888 11.8994 7.13446 12.1338C6.90004 12.3682 6.5821 12.4999 6.25058 12.4999C5.91905 12.4999 5.60111 12.3682 5.36669 12.1338C5.13227 11.8994 5.00058 11.5814 5.00058 11.2499C5.00058 10.9184 5.13227 10.6005 5.36669 10.366C5.60111 10.1316 5.91905 9.99992 6.25058 9.99992C6.5821 9.99992 6.90004 10.1316 7.13446 10.366C7.36888 10.6005 7.50058 10.9184 7.50058 11.2499Z" fill="black"/>
</g>
<defs>
<clipPath id="clip0_13_4686">
<rect width="20" height="20" fill="white"/>
</clipPath>
</defs>
</svg>
